{"title":"Avatar - BluRayrip - H265 HEVC (full HD1920x1080 - AAC 5/1)","uid":11788366,"size":6657723049,"categoryP":"video","categoryS":"hd___movies","magnet":"?xt=urn:btih:53a40609b335f3bb72745fd44845fa1f72903223&amp;dn=Avatar+-+BluRayrip+-+H265+HEVC+%28full+HD1920x1080+-+AAC+5%2F1%29&amp;tr=udp%3A%2F%2Ftracker.openbittorrent.com%3A80&amp;tr=udp%3A%2F%2Fopen.demonii.com%3A1337&amp;tr=udp%3A%2F%2Ftracker.coppersurfer.tk%3A6969&amp;tr=udp%3A%2F%2Fexodus.desync.com%3A6969","seeders":2,"leechers":1,"uploader":"kataklinger924","files":1,"time":1427839154,"description":"Video\nID                                       : 1\nFormat                                   : HEVC\nFormat/Info                              : High Efficiency Video Coding\nCodec ID                                 : hvc1\nCodec ID/Info                            : High Efficiency Video Coding\nDuration                                 : 2h 41mn\nBit rate                                 : 4 972 Kbps\nWidth                                    : 1 920 pixels\nHeight                                   : 1 080 pixels\nDisplay aspect ratio                     : 16:9\nFrame rate mode                          : Constant\nFrame rate                               : 23.976 fps\nBits/(Pixel*Frame)                       : 0.100\nStream size                              : 5.62 GiB (91%)\nEncoded date                             : UTC 2015-03-31 09:53:35\nTagged date                              : UTC 2015-03-31 17:59:44\n\nAudio\nID                                       : 2\nFormat                                   : AAC\nFormat/Info                              : Advanced Audio Codec\nFormat profile                           : LC\nCodec ID                                 : 40\nDuration                                 : 2h 41mn\nBit rate mode                            : Variable\nBit rate                                 : 515 Kbps\nChannel(s)                               : 6 channels\nChannel positions                        : Front: L C R, Side: L R, LFE\nSampling rate                            : 48.0 KHz\nCompression mode                         : Lossy\nStream size                              : 592 MiB (9%)\nEncoded date                             : UTC 2015-03-31 09:53:35\nTagged date                              : UTC 2015-03-31 17:59:08","torrent":{"xt":"urn:btih:53a40609b335f3bb72745fd44845fa1f72903223","amp;dn":"Avatar+-+BluRayrip+-+H265+HEVC+%28full+HD1920x1080+-+AAC+5%2F1%29","amp;tr":["udp%3A%2F%2Ftracker.openbittorrent.com%3A80","udp%3A%2F%2Fopen.demonii.com%3A1337","udp%3A%2F%2Ftracker.coppersurfer.tk%3A6969","udp%3A%2F%2Fexodus.desync.com%3A6969"],"infoHash":"53a40609b335f3bb72745fd44845fa1f72903223","infoHashBuffer":{"type":"Buffer","data":[83,164,6,9,179,53,243,187,114,116,95,212,72,69,250,31,114,144,50,35]},"announce":[],"urlList":[]}}